Title:
Le Colonel Chabert 

Country:
France/1994

Language:
French

Subtitle:
English
Portuguese

Director:
Yves Angelo

Writers:
Yves Angelo, Jean Cosmos

Stars:
Gérard Depardieu, Fanny Ardant, Fabrice Luchini 

Synopsis:
Colonel Chabert has been severely wounded in the French-Russian Napoleonic war to the point that the medical examiner has signed his death certificate. When he regains his health and memory, he goes back to Paris, where his "widow", Anne has married the Count Ferraud and is financing his rise to power using Chabert's money. Chabert hires a lawyer to help him get back his money and his honor. 

Trivia:
Official Selection Toronto International Film Festival

Imdb: 
http://www.imdb.com/title/tt0109454

Trailer: 
http://cineday.orange.fr/film/le-colonel-chabert_73689/videos/


Media Info:

General
Complete name                            : Le.Colonel.Chabert.1994.DVDRip.XviD.HORiZON-ArtSubs
Format                                   : AVI
Format/Info                              : Audio Video Interleave
Format profile                           : OpenDML
File size                                : 1.51 GiB
Duration                                 : 1h 46mn
Overall bit rate                         : 2 028 Kbps
Writing application                      : Lavf52.94.0

Video
ID                                       : 0
Format                                   : MPEG-4 Visual
Format profile                           : Simple@L3
Format settings, BVOP                    : No
Format settings, QPel                    : No
Format settings, GMC                     : No warppoints
Format settings, Matrix                  : Default (H.263)
Codec ID                                 : XVID
Codec ID/Hint                            : XviD
Duration                                 : 1h 46mn
Bit rate                                 : 1 792 Kbps
Width                                    : 1 024 pixels
Height                                   : 576 pixels
Display aspect ratio                     : 16:9
Frame rate                               : 25.000 fps
Color space                              : YUV
Chroma subsampling                       : 4:2:0
Bit depth                                : 8 bits
Scan type                                : Progressive
Compression mode                         : Lossy
Bits/(Pixel*Frame)                       : 0.122
Stream size                              : 1.33 GiB (88%)
Writing library                          : XviD 1.2.1 (UTC 2008-12-04)

Audio
ID                                       : 1
Format                                   : AC-3
Format/Info                              : Audio Coding 3
Mode extension                           : CM (complete main)
Format settings, Endianness              : Big
Codec ID                                 : 2000
Duration                                 : 1h 46mn
Bit rate mode                            : Constant
Bit rate                                 : 224 Kbps
Channel(s)                               : 2 channels
Channel positions                        : Front: L R
Sampling rate                            : 48.0 KHz
Bit depth                                : 16 bits
Compression mode                         : Lossy
Stream size                              : 171 MiB (11%)
Alignment                                : Aligned on interleaves
Interleave, duration                     : 32 ms (0.80 video frame)

